<?xml version="1.0" encoding="utf-8"?>
<!-- Generator: Adobe Illustrator 24.0.1, SVG Export Plug-In . SVG Version: 6.00 Build 0)  -->
<svg version="1.1" id="Layer_1" xmlns="http://www.w3.org/2000/svg" xmlns:xlink="http://www.w3.org/1999/xlink" x="0px" y="0px"
	 viewBox="0 0 680.2 205.7" style="enable-background:new 0 0 680.2 205.7;" xml:space="preserve">
<style type="text/css">
	.st0{fill-rule:evenodd;clip-rule:evenodd;fill:#1D1D1B;}
	.st1{fill-rule:evenodd;clip-rule:evenodd;fill:#ED1B2E;}
</style>
<title>Adobe</title>
<g id="Layer_2_1_">
	<g id="Layer_1-2">
		<path class="st0" d="M262.4,116.4l-9.3,42.8H232L267,4.1h25.1L325,159.2h-21.4l-9-42.8C294.6,116.4,262.4,116.4,262.4,116.4z
			 M292.1,99.2l-7.1-37c-2.1-10.6-4.1-24.4-5.8-35.4h-0.9c-1.6,11.3-3.8,25.5-6,35.4l-7.4,37H292.1z"/>
		<path class="st0" d="M405.8,0v130.4c0,8.5,0.5,20.9,0.9,28.8h-18.6l-1.4-13.4H386c-4.3,9.2-13.4,15.1-23.5,15.3
			c-20.7,0-33.4-22.5-33.4-57.3c0-39.6,16.8-58.2,34.5-58.2c8.7-0.4,16.6,4.7,20,12.7h0.5V0H405.8z M384.1,90c0-2.1,0-4.6-0.2-6.9
			c-1.2-10.1-6.9-18.9-14.7-18.9c-13.6,0-18.2,18.9-18.2,39.6c0,23,6,39.1,17.5,39.1c4.8,0,11.3-2.5,15-15.9
			c0.5-2.3,0.7-4.7,0.7-7.1C384.1,119.9,384.1,90,384.1,90z"/>
		<path class="st0" d="M457.3,161.1c-22.3,0-38.3-19.2-38.3-57.5c0-40.7,19.2-58,39.6-58c22.1,0,38,19.8,38,57.5
			c0,44.4-21.9,58-38.9,58H457.3z M458,144c13.3,0,16.3-23.7,16.3-40.7s-3-40.7-16.8-40.7s-17,23.9-17,40.7
			c0,18.6,3.2,40.7,17.3,40.7H458z"/>
		<path class="st0" d="M509.4,0H531v60h0.5c4.3-9,13.5-14.7,23.5-14.5c19.2,0,31.1,21.6,31.1,55.9c0,40-16.3,59.6-34.7,59.6
			c-11,0-17.3-6-22.1-15.9h-0.9l-1.2,14h-18.6c0.5-7.7,0.9-20.2,0.9-28.8L509.4,0L509.4,0z M531.1,119.6c-0.1,2.3,0.2,4.7,0.9,6.9
			c3.5,13.6,10.1,16.3,14.5,16.3c12.9,0,17.7-17,17.7-40c0-21.4-5.1-38.7-17.9-38.7c-7.1,0-12.9,8.5-14.5,16.6
			c-0.5,2.5-0.7,5.1-0.7,7.7V119.6L531.1,119.6z"/>
		<path class="st0" d="M617.9,107.7c0.2,28.8,12.7,35.9,25.8,35.9c6.6,0,13.2-1.4,19.2-4.1l3.2,15.6c-8.4,3.7-17.6,5.5-26.8,5.3
			c-28.1,0-42.8-21.2-42.8-55.7c0-36.6,16.8-59.1,40-59.1S671,67.9,671,95.9c0,5.5-0.2,9-0.5,12l-52.5-0.2L617.9,107.7z M650.4,92.3
			C650.6,72.6,643.7,62,635,62c-11.3,0-16.3,16.3-17,30.4L650.4,92.3L650.4,92.3z"/>
		<polygon class="st1" points="110.2,4.6 174.7,4.6 174.7,159.2 		"/>
		<polygon class="st1" points="64.7,4.6 0,4.6 0,159.2 		"/>
		<polygon class="st1" points="87.4,61.5 128.6,159.2 101.6,159.2 89.3,128.1 59.2,128.1 		"/>
		<path class="st0" d="M669,45.2c2.8,0,5,2.2,5,4.9s-2.2,5-4.9,5c-2.8,0-5-2.2-5-4.9l0,0C664.1,47.5,666.2,45.3,669,45.2L669,45.2z
			 M669,46.1c-2.3,0.2-4,2.3-3.8,4.6c0.2,2,1.8,3.6,3.8,3.8c2.2-0.1,3.9-2,3.8-4.2C672.9,48.1,671.2,46.2,669,46.1z M668.1,53.1
			h-0.9v-5.6c0.5,0,1,0,1.5,0c0.6,0,1.2,0.1,1.7,0.4c0.4,0.3,0.6,0.7,0.5,1.2c0,0.7-0.5,1.2-1.1,1.4l0,0c0.5,0,0.8,0.5,1,1.3
			c0,0.5,0.2,0.9,0.3,1.4h-0.9c-0.2-0.4-0.3-0.9-0.4-1.4c0-0.6-0.5-1-1.1-1l0,0h-0.6v2.4V53.1z M668.1,50h0.6c0.7,0,1.3-0.2,1.3-0.9
			s-0.3-1-1.3-1h-0.6V50L668.1,50z"/>
		<path class="st0" d="M183.3,4.6c2.7,0,4.9,2.2,4.9,4.9l0,0c0.2,2.7-1.8,5.1-4.5,5.4c-2.7,0.2-5.1-1.8-5.4-4.5c0-0.3,0-0.6,0-0.9
			C178.3,6.8,180.5,4.6,183.3,4.6L183.3,4.6z M183.3,5.3c-2.2,0.1-3.9,2-3.8,4.2c0,2.2,1.8,4,4,4s4-1.8,4-4c0.1-2.2-1.6-4.1-3.8-4.2
			H183.3z M182.3,12.4h-0.9V6.9c0.5,0,1,0,1.6,0s1.2,0.1,1.7,0.4c0.3,0.3,0.5,0.7,0.5,1.2c0,0.6-0.5,1.2-1.1,1.3l0,0
			c0.5,0,0.8,0.5,0.9,1.3c0,0.5,0.2,0.9,0.3,1.4h-0.9c-0.2-0.4-0.3-0.9-0.4-1.4c0-0.6-0.5-1-1.1-1h-0.1h-0.6L182.3,12.4L182.3,12.4z
			 M182.3,9.4h0.6c0.7,0,1.4-0.3,1.4-1s-0.4-1-1.4-1h-0.6V9.4L182.3,9.4z"/>
	</g>
</g>
</svg>
