<?xml version="1.0" encoding="utf-8"?>
<!-- Generator: Adobe Illustrator 24.0.1, SVG Export Plug-In . SVG Version: 6.00 Build 0)  -->
<svg version="1.1" id="Layer_1" xmlns="http://www.w3.org/2000/svg" xmlns:xlink="http://www.w3.org/1999/xlink" x="0px" y="0px"
	 viewBox="0 0 680 205" style="enable-background:new 0 0 680 205;" xml:space="preserve">
<style type="text/css">
	.st0{fill-rule:evenodd;clip-rule:evenodd;fill:#FCAF17;}
	.st1{fill-rule:evenodd;clip-rule:evenodd;fill:#231F20;}
</style>
<title>Amazon</title>
<g id="Layer_2_1_">
	<g id="Layer_1-2">
		<path class="st0" d="M393.8,159.4c-36.2,28.7-88.6,43.9-133.7,43.9c-60.3,0.3-118.5-23.7-163.3-67.2c-3.3-3.3-0.3-7.8,3.7-5.3
			c46.5,29.2,104,46.7,163.4,46.7c42.8-0.1,85.2-9.4,124.6-27.4C394.8,147.8,400.1,154.9,393.8,159.4"/>
		<path class="st0" d="M409,141c-4.6-6.4-30.5-3-42.3-1.5c-3.5,0.6-4.1-2.9-0.9-5.3c20.7-15.7,54.7-11.2,58.5-5.8
			c4,5.3-1.2,41.8-20.4,59.4c-3.1,2.8-5.9,1.2-4.5-2.2C403.8,173.7,413.6,147.4,409,141"/>
		<path class="st1" d="M367.6,23.7V8.4c0-2.1,1.5-3.7,3.5-3.7h0.1h63.4c1.9,0,3.7,1.5,3.7,3.6v0.1v13c0,2.2-1.8,5-4.7,9.6
			l-32.8,50.3c12.1-0.3,25,1.7,36.2,8.5c2,1.2,3.3,3.5,3.3,6v16.3c0,2.2-2.2,4.8-4.6,3.5c-21.1-11.6-45.9-11.5-66.8,0.1
			c-2.2,1.2-4.5-1.4-4.5-3.6V96.5c-0.1-3.6,0.6-7.2,2.4-10.5l38-58.7h-33.4C369.4,27.3,367.6,25.7,367.6,23.7
			C367.6,23.8,367.6,23.7,367.6,23.7"/>
		<path class="st1" d="M136.7,118.6h-19.3c-1.8,0-3.3-1.5-3.5-3.5V8.7c0-2.2,1.8-4,3.8-3.7l0,0h17.9c1.9,0,3.3,1.5,3.5,3.6v13.9h0.3
			C144,9,152.8,2.6,164.7,2.6s19.7,6.4,25,19.8C194.5,8.8,205,2.6,216.3,2.6c8.1,0,17,3.6,22.4,11.6c6.1,8.9,4.9,22,4.9,33.2v67.2
			c0,2.2-1.8,4-3.7,3.7l0,0h-19.3c-1.9,0-3.5-1.7-3.5-3.7V58.3c0-4.4,0.3-15.7-0.5-19.9c-1.4-7.2-5.8-9.1-11.2-9.1
			c-5.1,0.1-9.7,3.6-11.5,8.7c-2,5.3-1.8,14.3-1.8,20.4v56.2c0,2.2-1.8,4-3.7,3.7h-19.2c-1.9,0-3.5-1.7-3.5-3.7V58.3
			c0-11.9,1.8-29.4-11.9-29.4s-13.3,17-13.3,29.4v56.5C140.5,117,138.8,118.7,136.7,118.6L136.7,118.6"/>
		<path class="st1" d="M492.6,2.8c28.6,0,44,26.5,44,60.1c0,32.4-17.1,58.2-44,58.2c-28,0-43.4-26.5-43.4-59.4S464.7,2.8,492.6,2.8
			 M492.9,24.5c-14.1,0-15.1,20.8-15.1,33.8s-0.1,40.9,14.8,40.9c15.1,0,15.7-22.4,15.7-36c0-8.9-0.3-19.8-2.8-28.1
			C503.2,27.3,499,24.5,492.9,24.5"/>
		<path class="st1" d="M573.7,118.6h-19.2c-1.9-0.1-3.5-1.7-3.5-3.7V8.4c0.1-2.1,1.9-3.5,3.7-3.5h17.9c1.5,0,3.1,1.2,3.5,2.9v16.3
			h0.3c5.4-14.5,13-21.5,26.3-21.5c8.7,0,17.1,3.5,22.5,12.5c5.1,8.6,5.1,22.9,5.1,33.1v66.9c-0.3,1.9-1.9,3.5-3.7,3.5h-19.4
			c-1.8-0.1-3.2-1.5-3.5-3.5V57.5c0-11.6,1.3-28.7-12-28.7c-4.9,0.1-9.3,3.6-11.2,8.6c-2.7,6.5-3.1,13-3.1,20.1v57.4
			C577.3,117,575.8,118.7,573.7,118.6"/>
		<path class="st1" d="M317.1,67.7c0,8,0.1,14.8-3.7,22c-3.1,5.8-7.9,9.4-13.3,9.4c-7.4,0-11.8-6-11.8-15.1
			c0-17.7,14.7-20.9,28.6-20.9L317.1,67.7z M336.6,118.4c-1.3,1.2-3.2,1.4-4.6,0.6c-6.4-5.7-7.5-8.5-11.1-13.7
			c-10.6,11.5-18,15.1-31.8,15.1c-16.1,0-28.9-10.8-28.9-32.3c0-16.8,8.6-28.3,20.6-33.9c10.5-5,25-5.8,36.3-7.2v-2.8
			c0-5,0.3-10.8-2.4-15.1c-2.4-3.7-6.8-5.3-10.7-5.3c-7.3,0-13.9,4.2-15.5,12.5c-0.1,1.9-1.5,3.5-3.3,3.7l-18.7-2.2
			c-1.9-0.3-3.2-2.1-2.8-4.2v-0.1c4.2-24.4,24.7-31.7,43.1-31.7c9.3,0,21.7,2.8,29,10.3c9.3,9.4,8.6,22,8.6,35.7v32.3
			c0,9.8,3.8,13.9,7.3,19.3c1.3,1.9,1.4,4.2,0,5.5C347.4,108.3,340.5,114.8,336.6,118.4L336.6,118.4z"/>
		<path class="st1" d="M64.6,67.7c0,8,0.1,14.8-3.7,22c-3.1,5.8-7.9,9.4-13.3,9.4c-7.4,0-11.8-6-11.8-15.1
			c0-17.7,14.7-20.9,28.6-20.9v4.6C64.5,67.7,64.6,67.7,64.6,67.7z M84.1,118.4c-1.3,1.2-3.1,1.4-4.6,0.6
			c-6.4-5.7-7.5-8.5-11.1-13.7c-10.5,11.4-17.9,15-31.6,15c-16.1,0-28.9-10.8-28.9-32.3c0-16.8,8.6-28.3,20.6-33.9
			c10.5-5,25-5.8,36.3-7.2V44c0-5,0.3-10.8-2.4-15.1c-2.4-3.7-6.8-5.3-10.7-5.3c-7.3,0-13.9,4.2-15.5,12.5c-0.1,1.9-1.5,3.5-3.3,3.7
			l-18.7-2.2c-1.9-0.3-3.2-2.1-2.8-4.2v-0.1C15.6,9,36,1.6,54.4,1.6c9.3,0,21.6,2.8,29,10.3c9.3,9.4,8.6,22,8.6,35.7v32.3
			c0,9.8,3.8,13.9,7.3,19.3c1.3,1.9,1.4,4.2,0,5.5C94.9,108.3,87.9,114.8,84.1,118.4L84.1,118.4z"/>
	</g>
</g>
</svg>
