<svg xmlns="http://www.w3.org/2000/svg" viewBox="0 0 214.06 269.3"><defs><style>.cls-1{isolation:isolate;}.cls-2{fill:#79a4e9;}.cls-3{fill:#ffc328;}.cls-4{fill:#a5c3f1;}.cls-5{fill:#1058c1;}.cls-6,.cls-8{fill:#fff;}.cls-7{fill:#1c67da;}.cls-11,.cls-8{stroke:#1c67da;stroke-linecap:round;stroke-linejoin:round;}.cls-9{fill:#f78e36;}.cls-10{mix-blend-mode:multiply;}.cls-11{fill:none;}</style></defs><g class="cls-1"><g id="Layer_2" data-name="Layer 2"><g id="Layer_1-2" data-name="Layer 1"><path class="cls-2" d="M187.79,53a6.15,6.15,0,1,1-6.15-6.15A6.16,6.16,0,0,1,187.79,53Zm-10.37,0a4.22,4.22,0,1,0,4.22-4.22A4.23,4.23,0,0,0,177.42,53Z"/><path class="cls-3" d="M194.05,21.74a6.15,6.15,0,1,1-6.15-6.15A6.16,6.16,0,0,1,194.05,21.74Zm-10.37,0a4.22,4.22,0,1,0,4.22-4.22A4.22,4.22,0,0,0,183.68,21.74Z"/><path class="cls-2" d="M206.61,6.94a1,1,0,0,1-1,1h-4.26a1,1,0,0,1,0-1.93h4.25A1,1,0,0,1,206.61,6.94Z"/><path class="cls-2" d="M214.06,6.94a1,1,0,0,1-1,1h-4.25a1,1,0,0,1,0-1.93h4.25A1,1,0,0,1,214.06,6.94Z"/><path class="cls-2" d="M208.21,1V4.79a1,1,0,0,1-1.93,0V1a1,1,0,0,1,1.93,0Z"/><path class="cls-2" d="M208.21,9.09v3.82a1,1,0,0,1-1.93,0V9.09a1,1,0,1,1,1.93,0Z"/><path class="cls-3" d="M199.67,39.78a1,1,0,0,1-1,1h-4.25a1,1,0,1,1,0-1.92h4.25A1,1,0,0,1,199.67,39.78Z"/><path class="cls-3" d="M207.11,39.78a1,1,0,0,1-1,1h-4.26a1,1,0,0,1,0-1.93h4.26A1,1,0,0,1,207.11,39.78Z"/><path class="cls-3" d="M201.26,33.81v3.82a1,1,0,1,1-1.93,0V33.81a1,1,0,0,1,1.93,0Z"/><path class="cls-3" d="M201.26,41.93v3.82a1,1,0,1,1-1.93,0V41.93a1,1,0,0,1,1.93,0Z"/><path class="cls-3" d="M12.3,263.15A6.15,6.15,0,1,1,6.15,257,6.15,6.15,0,0,1,12.3,263.15Zm-1.93,0a4.22,4.22,0,1,0-4.22,4.22A4.23,4.23,0,0,0,10.37,263.15Z"/><path class="cls-4" d="M37.41,254.87a6.15,6.15,0,1,1-6.15-6.16A6.15,6.15,0,0,1,37.41,254.87Zm-1.93,0a4.22,4.22,0,1,0-4.22,4.22A4.23,4.23,0,0,0,35.48,254.86Z"/><path class="cls-3" d="M38.2,228.46a1,1,0,0,0-1,1v4.25a1,1,0,1,0,1.93,0v-4.25A1,1,0,0,0,38.2,228.46Z"/><path class="cls-3" d="M38.2,221a1,1,0,0,0-1,1v4.26a1,1,0,0,0,1.93,0V222A1,1,0,0,0,38.2,221Z"/><path class="cls-3" d="M44.17,226.87H40.35a1,1,0,0,0,0,1.93h3.82a1,1,0,1,0,0-1.93Z"/><path class="cls-3" d="M36.05,226.87H32.23a1,1,0,0,0,0,1.93h3.82a1,1,0,1,0,0-1.93Z"/><path class="cls-5" d="M12.13,235.27a1,1,0,0,0-1,1v4.26a1,1,0,0,0,1.93,0v-4.26A1,1,0,0,0,12.13,235.27Z"/><path class="cls-5" d="M12.13,227.82a1,1,0,0,0-1,1V233a1,1,0,0,0,1,1,1,1,0,0,0,1-1v-4.25A1,1,0,0,0,12.13,227.82Z"/><path class="cls-5" d="M18.1,233.68H14.28a1,1,0,0,0-1,1,1,1,0,0,0,1,1H18.1a1,1,0,1,0,0-1.93Z"/><path class="cls-5" d="M10,233.67H6.16a1,1,0,1,0,0,1.93H10a1,1,0,0,0,0-1.93Z"/><path class="cls-6" d="M91.22,52.61a51.13,51.13,0,0,1-1-14.87,6.81,6.81,0,0,1,.75-3,1.75,1.75,0,0,1,2.32-.84,8.4,8.4,0,0,1,3-5.39,12.09,12.09,0,0,1,5.15-2.39,22.76,22.76,0,0,1,15.24,1.75,9.27,9.27,0,0,1,2.92,2.05c4,4.47,4.05,13.6,2.75,19.44a10.46,10.46,0,0,0-.47,3.36"/><path class="cls-7" d="M91.7,52.48a52.5,52.5,0,0,1-1.12-10.15,42.08,42.08,0,0,1,.2-4.9,5.66,5.66,0,0,1,.56-2.25c.33-.6,1-1.23,1.73-.82a.51.51,0,0,0,.75-.44c.49-3.9,3.77-6.27,7.35-7.2a22.11,22.11,0,0,1,11.53.18,18.34,18.34,0,0,1,5.36,2.35,8.82,8.82,0,0,1,2.82,3.6,21.88,21.88,0,0,1,1.72,9.08,32.85,32.85,0,0,1-.34,5.15c-.27,1.86-1,3.77-.88,5.66.06.64,1.06.65,1,0a10.93,10.93,0,0,1,.47-3.3c.16-.75.29-1.5.4-2.26a34.75,34.75,0,0,0,.35-4.89,23.72,23.72,0,0,0-1.76-9.72A9.93,9.93,0,0,0,119,28.72a17.11,17.11,0,0,0-5.41-2.59,23.11,23.11,0,0,0-12.29-.47,12.32,12.32,0,0,0-5.85,2.94,9,9,0,0,0-2.64,5.32l.76-.43c-1.39-.78-2.77.33-3.3,1.61a15.64,15.64,0,0,0-.69,5.53,53.05,53.05,0,0,0,1.15,12.12c.13.63,1.09.36,1-.27Z"/><path class="cls-8" d="M116.8,67.18H95.37a21,21,0,0,0-21,22.17l2.93,51.74h57.47l2.93-51.74A21,21,0,0,0,116.8,67.18Z"/><path class="cls-8" d="M83.53,90.67l-5.29,19.81a3.46,3.46,0,0,0,3.36,4.34l10.75-.09"/><path class="cls-8" d="M134,90.67l5.28,19.81a3.45,3.45,0,0,1-3.36,4.34l-10.74-.09"/><path class="cls-8" d="M105.9,72.16h2.42A17.79,17.79,0,0,1,126.11,90v0a0,0,0,0,1,0,0h-38a0,0,0,0,1,0,0v0A17.79,17.79,0,0,1,105.9,72.16Z"/><path class="cls-8" d="M110.94,72.16V65.48h-7.66v6.68H102a7.05,7.05,0,0,0,10.31,0Z"/><path class="cls-8" d="M161.42,112.21H157.2a2.56,2.56,0,0,1-2.56-2.56v-2.59a2.56,2.56,0,0,1,2.56-2.56h4.22a2.56,2.56,0,0,1,2.56,2.56v2.59A2.55,2.55,0,0,1,161.42,112.21Zm-4.22-6.41a1.26,1.26,0,0,0-1.26,1.26v2.59a1.25,1.25,0,0,0,1.26,1.26h4.22a1.25,1.25,0,0,0,1.26-1.26v-2.59a1.26,1.26,0,0,0-1.26-1.26Z"/><polygon class="cls-8" points="155.67 101.98 154.27 101.98 149.54 101.98 150.7 114.73 154.27 114.73 155.67 114.73 159.24 114.73 160.4 101.98 155.67 101.98"/><path class="cls-3" d="M115.59,78.65H86.21a3.76,3.76,0,0,0-3.75,4l1.59,28.68a3.76,3.76,0,0,0,3.76,3.56h41.6a3.75,3.75,0,0,0,3.75-3.56l1.6-28.68a3.77,3.77,0,0,0-3.76-4Z"/><rect class="cls-9" x="83.63" y="111.77" width="49.96" height="3.09" rx="1.54"/><path class="cls-4" d="M29.07,106.12H58.44a4,4,0,0,1,4,4v0a4,4,0,0,1-4,4H29.07a0,0,0,0,1,0,0v-8.06A0,0,0,0,1,29.07,106.12Z"/><g class="cls-10"><path class="cls-4" d="M62,111.28a4,4,0,0,1-.13,1,4,4,0,0,0,.61-2.1,4,4,0,0,0-4-4H29.07v1.12H58A4,4,0,0,1,62,111.28Z"/></g><path class="cls-7" d="M58.44,105.55H28.3v1.15H58.44a3.46,3.46,0,1,1,0,6.91H28.3v1.15H58.44a4.61,4.61,0,1,0,0-9.21Z"/><path class="cls-6" d="M57.69,108.68H31a.19.19,0,0,1-.19-.19.18.18,0,0,1,.19-.19H57.69a.18.18,0,0,1,.19.19A.19.19,0,0,1,57.69,108.68Z"/><path class="cls-6" d="M57.69,110.35H31a.19.19,0,0,1-.19-.19A.19.19,0,0,1,31,110H57.69a.19.19,0,0,1,.19.2A.19.19,0,0,1,57.69,110.35Z"/><path class="cls-6" d="M57.69,112H31a.19.19,0,0,1-.19-.2.19.19,0,0,1,.19-.19H57.69a.19.19,0,0,1,.19.19A.19.19,0,0,1,57.69,112Z"/><path class="cls-4" d="M32.13,91.58H54.54a3.5,3.5,0,0,1,3.5,3.5v0a3.5,3.5,0,0,1-3.5,3.5H32.13a0,0,0,0,1,0,0v-7a0,0,0,0,1,0,0Z"/><g class="cls-10"><path class="cls-4" d="M57.63,96.05a3.35,3.35,0,0,1-.12.85A3.43,3.43,0,0,0,58,95.08a3.5,3.5,0,0,0-3.5-3.5H32.13v1h22A3.5,3.5,0,0,1,57.63,96.05Z"/></g><path class="cls-7" d="M54.54,91.08H31.46v1H54.54a3,3,0,1,1,0,6H31.46v1H54.54a4,4,0,1,0,0-8Z"/><path class="cls-6" d="M53.88,93.8H33.76a.18.18,0,0,1-.17-.17.17.17,0,0,1,.17-.16H53.88a.16.16,0,0,1,.17.16A.17.17,0,0,1,53.88,93.8Z"/><path class="cls-6" d="M53.88,95.25H33.76a.17.17,0,0,1,0-.34H53.88a.17.17,0,0,1,0,.34Z"/><path class="cls-6" d="M53.88,96.69H33.76a.17.17,0,0,1-.17-.16.17.17,0,0,1,.17-.17H53.88a.16.16,0,0,1,.17.17A.16.16,0,0,1,53.88,96.69Z"/><path class="cls-9" d="M25.4,99.49H51.83a2.89,2.89,0,0,1,2.89,2.89v0a2.89,2.89,0,0,1-2.89,2.89H25.4a0,0,0,0,1,0,0V99.49A0,0,0,0,1,25.4,99.49Z"/><g class="cls-10"><path class="cls-4" d="M54.38,103.19a2.75,2.75,0,0,1-.1.7,2.78,2.78,0,0,0,.44-1.51,2.89,2.89,0,0,0-2.89-2.89H25.4v.81H51.49A2.89,2.89,0,0,1,54.38,103.19Z"/></g><path class="cls-3" d="M51.83,99.08h-27v.83h27a2.48,2.48,0,1,1,0,5h-27v.83h27a3.31,3.31,0,0,0,0-6.61Z"/><path class="cls-6" d="M51.29,101.33H26.75a.14.14,0,0,1-.14-.14.14.14,0,0,1,.14-.14H51.29a.14.14,0,0,1,.14.14A.14.14,0,0,1,51.29,101.33Z"/><path class="cls-6" d="M51.29,102.52H26.75a.14.14,0,0,1-.14-.14.13.13,0,0,1,.14-.13H51.29a.13.13,0,0,1,.14.13A.14.14,0,0,1,51.29,102.52Z"/><path class="cls-6" d="M51.29,103.72H26.75a.14.14,0,0,1-.14-.14.14.14,0,0,1,.14-.14H51.29a.14.14,0,0,1,.14.14A.14.14,0,0,1,51.29,103.72Z"/><path class="cls-8" d="M83,143.23l-6.54,64.24a.85.85,0,0,0,.76.86h0a1,1,0,0,0,1.24-.68L87.89,142"/><path class="cls-8" d="M130.89,143.23l6.54,64.24a.86.86,0,0,1-.77.86h0a1,1,0,0,1-1.23-.68L126,142"/><path class="cls-8" d="M116.83,192.61l.44,9.71s7.8,1.22,8.2,6c-13.69.11-17.66-.73-17.66-.73l3-20.55"/><rect class="cls-8" x="74.18" y="126.8" width="65.52" height="16.89" rx="8.45"/><polyline class="cls-8" points="109.46 134.1 108.82 194.11 118.85 194.43 125.98 134.88"/><path class="cls-6" d="M125.59,208.35c-.41-4.89-8.31-6.13-8.31-6.13l-.17-3.78a69.9,69.9,0,0,0-8.06-.06l-1.36,9.23S111.71,208.46,125.59,208.35Z"/><path class="cls-7" d="M126.09,208.35c-.4-4.07-5.13-6-8.68-6.61l.37.48-.17-3.78a.51.51,0,0,0-.5-.5,72.23,72.23,0,0,0-8.06-.06.48.48,0,0,0-.48.36l-1.36,9.24a.5.5,0,0,0,.35.61,21.35,21.35,0,0,0,2.27.3c2.63.25,5.28.35,7.93.41s5.22.07,7.83,0a.5.5,0,0,0,0-1c-4,0-8,0-12.07-.2-1.09-.06-2.19-.13-3.28-.22l-1.09-.11-.42,0-.27,0-.64-.1.35.61,1.36-9.23-.48.37a72.23,72.23,0,0,1,8.06.06l-.5-.5.17,3.78a.53.53,0,0,0,.37.49c3,.47,7.6,2.09,7.94,5.64C125.16,209,126.16,209,126.09,208.35Z"/><path class="cls-8" d="M83.16,127.52s1.21,11,6.47,12,27.77-1.39,27.77-1.39l-1.43-7Z"/><path class="cls-8" d="M144.28,144.57l5.6,2.13s-1.26,13.25,3.94,14c1.3-9.21,1.67-19.08,1.67-19.08l-9.32-3.43"/><path class="cls-8" d="M89.9,134.41l55.25,12.29,3.23-8.68-34.09-14.91-30.2-1.6S79.75,132.15,89.9,134.41Z"/><path class="cls-6" d="M150.72,139.83c-.84,2-1.5,4.21-2.2,6.35l1.36.52s-1.26,13.25,3.94,14c1.3-9.21,1.67-19.08,1.67-19.08Z"/><path class="cls-7" d="M150.24,139.69c-.84,2.08-1.51,4.23-2.2,6.36a.5.5,0,0,0,.35.61l1.36.52-.37-.48a38.1,38.1,0,0,0-.11,4.78c.1,2.51.33,5.34,1.62,7.56a4,4,0,0,0,2.8,2.11c.23,0,.57-.06.61-.35A190.48,190.48,0,0,0,156,141.58a.51.51,0,0,0-.37-.49l-4.76-1.75c-.61-.22-.87.75-.27,1l4.77,1.75-.37-.48a187.75,187.75,0,0,1-1.65,18.95l.61-.35c-2.24-.34-2.94-3.06-3.29-4.94a30.78,30.78,0,0,1-.37-7c0-.52,0-1,.09-1.56a.49.49,0,0,0-.36-.48l-1.37-.52.35.61c.7-2.13,1.36-4.27,2.21-6.35C151.45,139.36,150.48,139.1,150.24,139.69Z"/><rect class="cls-8" x="3.46" y="114.91" width="206.96" height="7.43"/><polygon class="cls-8" points="14.06 122.34 9.24 122.34 11.77 215.41 14.06 215.41 16.36 215.41 18.88 122.34 14.06 122.34"/><polygon class="cls-8" points="199.81 122.34 194.99 122.34 197.52 215.41 199.81 215.41 202.11 215.41 204.63 122.34 199.81 122.34"/><path class="cls-8" d="M123.49,50.57a2.81,2.81,0,0,0-2.62-.84c0-.21,0-.42,0-.63,0-10.58-6.24-19.15-14-19.15S93,38.52,93,49.1c0,.23,0,.45,0,.68a2.89,2.89,0,0,0-2.25.33,2.93,2.93,0,0,0-.54.46c-1.34,1.45-1.23,4.13.25,6A3.62,3.62,0,0,0,94.58,58c2.34,6.1,7,10.26,12.36,10.26s10-4.13,12.33-10.19a3.69,3.69,0,0,0,4-1.5C124.72,54.7,124.83,52,123.49,50.57Z"/><circle class="cls-8" cx="101.63" cy="49.67" r="1.37"/><circle class="cls-8" cx="112.58" cy="49.67" r="1.37"/><path class="cls-8" d="M105.23,53.59A1.67,1.67,0,0,0,107,55.16a1.62,1.62,0,0,0,1.74-1.57"/><path class="cls-8" d="M104.33,58.21s.68,1,2.92,1,2.78-1,2.78-1"/><path class="cls-11" d="M153.23,86.72a2.15,2.15,0,0,0-.65,3.12c1.23,2-.42,2.7-.42,2.7"/><path class="cls-11" d="M155.85,93.06a2.15,2.15,0,0,0-.65,3.12c1.23,2-.42,2.71-.42,2.71"/><path class="cls-6" d="M91.79,46.75l.71,2h1.9l2.86-7.14,2.56-7.49,8.93-2,.78-4.06s-1.68-.35-1.94-.44S99,31,99,31L95.5,35.1l-3,3.13Z"/><path class="cls-8" d="M91,49.8a9.77,9.77,0,0,0,.45,1.32.89.89,0,0,0,.29.43c.3.19.65-.1.9-.37A15.29,15.29,0,0,0,96,45a23.8,23.8,0,0,0,.76-4.45c0-.39.34-3.64.26-4.49,6,3.06,19.48,6.12,23.1,2.94s1-11.32-3.27-14c-3.45-2.17-5.41.6-6.28,2.45"/></g></g></g></svg>