<svg xmlns="http://www.w3.org/2000/svg" viewBox="0 0 241.01 194.8"><defs><style>.cls-1{fill:#79a4e9;}.cls-2{fill:#ffc328;}.cls-3{fill:#a5c3f1;}.cls-4{fill:#1058c1;}.cls-5,.cls-6{fill:#1c67da;}.cls-6{fill-rule:evenodd;}</style></defs><g id="Layer_2" data-name="Layer 2"><g id="Layer_1-2" data-name="Layer 1"><path class="cls-1" d="M214.73,53a6.15,6.15,0,1,1-6.14-6.15A6.16,6.16,0,0,1,214.73,53Zm-10.37,0a4.22,4.22,0,1,0,4.23-4.22A4.23,4.23,0,0,0,204.36,53Z"/><path class="cls-2" d="M221,21.74a6.15,6.15,0,1,1-6.15-6.15A6.16,6.16,0,0,1,221,21.74Zm-10.37,0a4.22,4.22,0,1,0,4.22-4.22A4.22,4.22,0,0,0,210.63,21.74Z"/><path class="cls-1" d="M233.56,6.94a1,1,0,0,1-1,1h-4.26a1,1,0,0,1,0-1.93h4.26A1,1,0,0,1,233.56,6.94Z"/><path class="cls-1" d="M241,6.94a1,1,0,0,1-1,1h-4.25a1,1,0,1,1,0-1.93H240A1,1,0,0,1,241,6.94Z"/><path class="cls-1" d="M235.16,1V4.79a1,1,0,0,1-1.93,0V1a1,1,0,0,1,1.93,0Z"/><path class="cls-1" d="M235.16,9.09v3.82a1,1,0,0,1-1.92,0V9.09a1,1,0,1,1,1.93,0Z"/><path class="cls-2" d="M226.61,39.78a1,1,0,0,1-1,1h-4.26a1,1,0,1,1,0-1.92h4.25A1,1,0,0,1,226.61,39.78Z"/><path class="cls-2" d="M234.06,39.78a1,1,0,0,1-1,1h-4.25a1,1,0,0,1,0-1.93h4.25A1,1,0,0,1,234.06,39.78Z"/><path class="cls-2" d="M228.21,33.81v3.82a1,1,0,1,1-1.93,0V33.81a1,1,0,0,1,1.93,0Z"/><path class="cls-2" d="M228.21,41.93v3.82a1,1,0,1,1-1.93,0V41.93a1,1,0,0,1,1.93,0Z"/><path class="cls-2" d="M12.3,188.65a6.15,6.15,0,1,1-6.15-6.15A6.16,6.16,0,0,1,12.3,188.65Zm-1.93,0a4.22,4.22,0,1,0-4.22,4.22A4.22,4.22,0,0,0,10.37,188.65Z"/><path class="cls-3" d="M37.41,180.36a6.15,6.15,0,1,1-6.15-6.15A6.16,6.16,0,0,1,37.41,180.36Zm-1.93,0a4.22,4.22,0,1,0-4.22,4.22A4.22,4.22,0,0,0,35.48,180.36Z"/><path class="cls-2" d="M38.2,154a1,1,0,0,0-1,1v4.26a1,1,0,0,0,1.93,0v-4.26A1,1,0,0,0,38.2,154Z"/><path class="cls-2" d="M38.2,146.51a1,1,0,0,0-1,1v4.25a1,1,0,1,0,1.93,0v-4.25A1,1,0,0,0,38.2,146.51Z"/><path class="cls-2" d="M44.17,152.37H40.35a1,1,0,0,0,0,1.93h3.82a1,1,0,1,0,0-1.92Z"/><path class="cls-2" d="M36.05,152.36H32.23a1,1,0,0,0,0,1.93h3.82a1,1,0,1,0,0-1.93Z"/><path class="cls-4" d="M12.13,160.77a1,1,0,0,0-1,1V166a1,1,0,0,0,1,1,1,1,0,0,0,1-1v-4.26A1,1,0,0,0,12.13,160.77Z"/><path class="cls-4" d="M12.13,153.32a1,1,0,0,0-1,1v4.25a1,1,0,0,0,1,1,1,1,0,0,0,1-1v-4.25A1,1,0,0,0,12.13,153.32Z"/><path class="cls-4" d="M18.1,159.17H14.28a1,1,0,1,0,0,1.93H18.1a1,1,0,1,0,0-1.93Z"/><path class="cls-4" d="M10,159.17H6.16a1,1,0,1,0,0,1.93H10a1,1,0,0,0,0-1.93Z"/><path class="cls-2" d="M46.84,67.92l-2,6.81A1.94,1.94,0,0,1,42.43,76l-22-6.48a1.94,1.94,0,0,1-1.32-2.41L25.55,45.1a1.93,1.93,0,0,1,1.86-1.39,1.68,1.68,0,0,1,.54.08l21.68,6.37.76-.81-.1,0L28.23,42.83a2.93,2.93,0,0,0-3.64,2L18.1,66.87a3,3,0,0,0,.24,2.24,2.93,2.93,0,0,0,1.75,1.41L42.15,77a2.93,2.93,0,0,0,3.64-2l2.08-7.07Z"/><path class="cls-5" d="M163.68,104.55a4.93,4.93,0,0,1-2,.16,3.75,3.75,0,0,1-2.63-1.27,1.54,1.54,0,0,1-.31-1.22,2.13,2.13,0,0,1,1.62-1.47,5.17,5.17,0,0,1,2.06-.17,3.85,3.85,0,0,1,2.61,1.28,1.55,1.55,0,0,1,.33,1.2A2.18,2.18,0,0,1,163.68,104.55Zm-3.1-3c-.56.18-.94.48-1,.79a.68.68,0,0,0,.14.53,3,3,0,0,0,2,.91c1.26.15,2.58-.34,2.7-.94a.67.67,0,0,0-.16-.5,3,3,0,0,0-2-.92A4.27,4.27,0,0,0,160.58,101.6Z"/><path class="cls-5" d="M148.08,55.77a.48.48,0,0,1-.2,0,.44.44,0,0,1-.18-.59c3.2-6.24-3.89-10.71-7.3-12.86-1.42-.89-1.89-1.19-1.86-1.65,0-.72.06-1.26.06-1.67,0,.1-.07.2-.1.29-.59,1.72-.87,2.41-1.43,2.36s-.59-.63-.63-.88c-.21-1.29-.39-2.27-.53-2.95v0c-.3,1.61-.68,3.61-1.89,3.82-2.21.4-6.84,4.42-8.15,8.42a4.54,4.54,0,0,0,.75,4.84.44.44,0,0,1,0,.61.43.43,0,0,1-.61,0,5.41,5.41,0,0,1-1-5.7c1.37-4.16,6.08-8.5,8.83-9,.62-.11,1-2.15,1.19-3.13.22-1.15.31-1.63.83-1.67s.68.2,1.35,4.23c.16-.39.33-.88.45-1.23.51-1.48.72-2.1,1.27-2s.63.41.46,3.58a16.19,16.19,0,0,0,1.45,1c3.34,2.1,11.18,7,7.61,14A.43.43,0,0,1,148.08,55.77Z"/><path class="cls-5" d="M125.57,60.58a1.72,1.72,0,0,1-.47-.07c-1.54-.46-2.69-3.17-2.82-4.91-.09-1.1.2-1.87.8-2.16.83-.39,2,.17,3.65,1.72a.44.44,0,0,1-.6.63c-1.88-1.8-2.56-1.62-2.67-1.56s-.37.61-.32,1.3c.13,1.61,1.17,3.84,2.21,4.15.13,0,.54.16,1.06-.53a.44.44,0,1,1,.69.53A1.92,1.92,0,0,1,125.57,60.58Z"/><path class="cls-5" d="M136.75,69.81a9.26,9.26,0,0,1-4.35-1.06c-3.89-2.07-6.06-6.73-6.11-13.14a.44.44,0,0,1,.43-.44.46.46,0,0,1,.44.43c0,6.08,2.05,10.47,5.64,12.38a9.23,9.23,0,0,0,9.4-.73c3.61-2.39,5.51-6.72,5.08-11.57a.44.44,0,0,1,.4-.47.43.43,0,0,1,.47.39c.45,5.18-1.59,9.8-5.47,12.38A10.84,10.84,0,0,1,136.75,69.81Z"/><path class="cls-5" d="M138.84,55.94a.43.43,0,0,1-.33-.71A3.55,3.55,0,0,1,141.28,54a2.32,2.32,0,0,1,1.84.91.43.43,0,0,1-.08.61.44.44,0,0,1-.61-.09,1.49,1.49,0,0,0-1.18-.57,2.87,2.87,0,0,0-2.08,1A.44.44,0,0,1,138.84,55.94Z"/><path class="cls-5" d="M134.17,51.64a.44.44,0,0,1-.23-.81c1-.58,1.44-2.09,1.75-3.09a.43.43,0,0,1,.54-.29.44.44,0,0,1,.29.55c-.36,1.12-.89,2.82-2.13,3.57A.38.38,0,0,1,134.17,51.64Z"/><path class="cls-5" d="M147.25,55.44a.46.46,0,0,1-.23-.06l-1.57-1c-2.77-1.67-3.27-2-5.67-5.64a.43.43,0,1,1,.72-.47c2.3,3.49,2.65,3.71,5.4,5.37l1.58,1a.45.45,0,0,1,.14.6A.45.45,0,0,1,147.25,55.44Z"/><path class="cls-5" d="M138.17,59.85h0a.44.44,0,0,1-.41-.46c0-.38-.23-.6-.55-.85a1.76,1.76,0,0,1-.28-.25.42.42,0,0,1,0-.6.44.44,0,0,1,.62,0l.15.12a1.85,1.85,0,0,1,.88,1.58A.43.43,0,0,1,138.17,59.85Z"/><path class="cls-5" d="M137.09,65.56c-1.49,0-3.54-.61-5.41-3.26a.44.44,0,0,1,.1-.61.44.44,0,0,1,.61.11c1.43,2,3.1,3,5,2.89a6.92,6.92,0,0,0,5-3,.43.43,0,0,1,.76.41,7.58,7.58,0,0,1-5.66,3.5Z"/><path class="cls-5" d="M149.17,60.69a1.9,1.9,0,0,1-1.55-1,.43.43,0,0,1,.12-.6.42.42,0,0,1,.6.11c.48.72.86.63,1,.6.8-.18,1.74-1.83,2-3.44.12-.89,0-1.57-.36-1.76-.19-.1-.94-.3-2.94,1.37a.43.43,0,1,1-.55-.66c1.75-1.47,3-2,3.91-1.47.7.39,1,1.32.8,2.64-.25,1.76-1.33,3.86-2.64,4.17A1.76,1.76,0,0,1,149.17,60.69Z"/><path class="cls-5" d="M131.7,56.34a.43.43,0,0,1-.33-.71,3.59,3.59,0,0,1,2.73-1.26,2.39,2.39,0,0,1,1.88.9.44.44,0,0,1-.08.61.43.43,0,0,1-.61-.07,1.55,1.55,0,0,0-1.21-.58,2.85,2.85,0,0,0-2.05,1A.44.44,0,0,1,131.7,56.34Z"/><path class="cls-5" d="M129.93,53.84a.44.44,0,0,1-.35-.18.43.43,0,0,1,.09-.6,18.67,18.67,0,0,0,3.44-5.53.44.44,0,0,1,.52-.32.43.43,0,0,1,.32.53c-.28,1.17-2.61,5.16-3.76,6A.43.43,0,0,1,129.93,53.84Z"/><path class="cls-5" d="M126.76,55.31a.46.46,0,0,1-.29-.11.44.44,0,0,1,0-.61,8,8,0,0,0,1.52-2.5l.25-.56a.43.43,0,1,1,.79.35l-.25.56a8.45,8.45,0,0,1-1.66,2.72A.41.41,0,0,1,126.76,55.31Z"/><path class="cls-5" d="M144.6,90.82c-.52,0-1.11,0-1.77-.1-.94-.08-2.11-.18-3.49-.18l-3,0c-5.74.1-7.67.14-8.14-4.4-.11-1.11-1-11.14,2.54-19a.43.43,0,1,1,.79.35C128.12,75.2,129,85,129.09,86.1c.39,3.73,1.44,3.72,7.26,3.61.89,0,1.88,0,3,0,1.42,0,2.61.1,3.57.18,2.34.2,3.1.2,3.54-.85,1.18-2.94-.31-10.91-1.51-17.31-.36-1.9-.69-3.7-.92-5.18a.43.43,0,0,1,.36-.5.44.44,0,0,1,.49.37c.23,1.46.57,3.25.92,5.15,1.22,6.51,2.74,14.62,1.46,17.8C146.75,90.54,145.87,90.82,144.6,90.82Z"/><path class="cls-5" d="M229.78,113.13a4.36,4.36,0,0,1-2.33,2.07,1,1,0,0,1-.8-.16c-.93-.67-.48-2.78.46-4.52.87-1.56,1.9-2.54,2.72-2.69a1,1,0,0,1,.79.16c1,.7.43,2.84-.48,4.54Q230,112.85,229.78,113.13Zm-1.59-2.71c-.11.16-.22.34-.32.52-1,1.82-1,3.2-.72,3.39,0,0,0,0,.14,0a4.73,4.73,0,0,0,2.09-2.24c1-1.84,1-3.22.73-3.42,0,0-.09,0-.12,0A4,4,0,0,0,228.19,110.42Z"/><path class="cls-5" d="M32.77,77.06h0A8.47,8.47,0,0,1,31.38,77c-2-.3-3.92-1.21-3.87-2.38,0-.83,1.1-1.35,2.77-1.35a9,9,0,0,1,1.34.11c2,.29,3.95,1.21,3.9,2.38C35.48,76.56,34.46,77.06,32.77,77.06Zm-2.49-3c-1.34,0-1.89.37-1.9.52,0,.34,1.08,1.17,3.14,1.49a9.14,9.14,0,0,0,1.25.1h0c1.3,0,1.88-.35,1.88-.53,0-.34-1.09-1.17-3.16-1.49A8.63,8.63,0,0,0,30.28,74.09Z"/><path class="cls-5" d="M35.76,75.3h-.13a1,1,0,0,1-.72-.41,2.35,2.35,0,0,1-.32-1.83c.21-1.1.89-1.9,1.63-1.9h.12a1.05,1.05,0,0,1,.73.44,2.38,2.38,0,0,1,.28,1.8C37.14,74.52,36.49,75.3,35.76,75.3ZM36.23,72c-.24,0-.65.46-.78,1.18a1.55,1.55,0,0,0,.14,1.14c.06.08.11.08.12.08l0,.44v-.43c.21,0,.6-.45.74-1.19a1.56,1.56,0,0,0-.13-1.12c-.06-.09-.12-.1-.14-.1Z"/><path class="cls-5" d="M43.77,80.06h0A8.47,8.47,0,0,1,42.38,80c-2-.3-3.92-1.21-3.87-2.38,0-.83,1.1-1.35,2.77-1.35a9,9,0,0,1,1.34.11c2,.29,4,1.21,3.9,2.38C46.48,79.56,45.46,80.06,43.77,80.06Zm-2.49-3c-1.34,0-1.89.37-1.9.52,0,.34,1.08,1.17,3.14,1.49a9.14,9.14,0,0,0,1.25.1h0c1.3,0,1.88-.35,1.88-.53,0-.34-1.09-1.17-3.16-1.49A8.63,8.63,0,0,0,41.28,77.09Z"/><path class="cls-5" d="M45.76,78.3h-.13a1,1,0,0,1-.72-.41,2.35,2.35,0,0,1-.32-1.83c.21-1.1.89-1.9,1.63-1.9h.12a1.05,1.05,0,0,1,.73.44,2.38,2.38,0,0,1,.28,1.8C47.14,77.52,46.49,78.3,45.76,78.3ZM46.23,75c-.24,0-.65.46-.78,1.18a1.55,1.55,0,0,0,.14,1.14c.06.08.11.08.12.08l0,.44v-.43c.21,0,.6-.45.74-1.19a1.56,1.56,0,0,0-.13-1.12c-.06-.09-.12-.1-.14-.1Z"/><path class="cls-2" d="M137.57,75.4A3.37,3.37,0,0,1,134.65,74a3.23,3.23,0,0,1-.11-3.13.42.42,0,0,1,.3-.25,20.6,20.6,0,0,1,2.24-.1c2.57,0,2.92.33,3.06.66a3.44,3.44,0,0,1-.52,3A2.49,2.49,0,0,1,137.57,75.4Zm-2.33-3.94a2.28,2.28,0,0,0,.14,2.07,2.48,2.48,0,0,0,2.19,1,1.71,1.71,0,0,0,1.33-.86,2.81,2.81,0,0,0,.47-2.07,7.51,7.51,0,0,0-2.29-.2C136.28,71.4,135.59,71.44,135.24,71.46Z"/><path class="cls-2" d="M136.93,85.1h-.1c-.48-.12-2.46-1-2.74-1.89-.36-1.24.38-3.54,1-5.57a12.39,12.39,0,0,0,.67-2.58.45.45,0,0,1,.31-.53.43.43,0,0,1,.52.28c.14.48-.14,1.39-.68,3.09s-1.3,4.09-1,5.06a4.83,4.83,0,0,0,2,1.27,6.79,6.79,0,0,0,1.41-1.58c0-.55-.12-1.37-.24-2.32a26.43,26.43,0,0,1-.33-5.27.44.44,0,0,1,.48-.39.45.45,0,0,1,.39.48,24.68,24.68,0,0,0,.32,5.07,24.09,24.09,0,0,1,.25,2.53.47.47,0,0,1,0,.16C139,83.26,137.67,85.1,136.93,85.1Z"/><path class="cls-5" d="M190.4,88.84a.37.37,0,0,1-.2,0,.44.44,0,0,1-.19-.6c3.29-6.41-4-11-7.49-13.2-1.46-.91-1.94-1.22-1.91-1.69,0-.72.06-1.27.07-1.69,0,.1-.07.2-.11.29-.59,1.71-.89,2.48-1.47,2.41s-.6-.65-.64-.91c-.21-1.3-.39-2.3-.53-3-.32,1.65-.72,3.69-2,3.91-2.26.41-7,4.53-8.37,8.63-.67,2-.41,3.71.78,5a.45.45,0,0,1-.65.61,5.56,5.56,0,0,1-1-5.85c1.41-4.27,6.24-8.72,9.05-9.24.66-.11,1.07-2.23,1.26-3.24.22-1.16.3-1.7.85-1.69s.68.2,1.36,4.36c.16-.4.34-.9.46-1.26.53-1.51.75-2.13,1.31-2s.64.42.47,3.65a13.5,13.5,0,0,0,1.48,1c3.43,2.16,11.48,7.22,7.81,14.36A.46.46,0,0,1,190.4,88.84Z"/><path class="cls-5" d="M178.78,103.25a9.42,9.42,0,0,1-4.47-1.1c-4-2.12-6.19-6.91-6.23-13.48a.45.45,0,0,1,.44-.45h0a.45.45,0,0,1,.45.45c0,6.23,2.08,10.74,5.76,12.7a9.46,9.46,0,0,0,9.63-.74c3.71-2.46,5.67-6.9,5.22-11.89a.45.45,0,0,1,.41-.48.43.43,0,0,1,.48.4c.47,5.32-1.63,10.07-5.62,12.71A11,11,0,0,1,178.78,103.25Z"/><path class="cls-5" d="M176.16,84.6a.47.47,0,0,1-.38-.21.45.45,0,0,1,.14-.62c.91-.56,1.39-2,1.74-3l.06-.18a.46.46,0,0,1,.57-.28.45.45,0,0,1,.28.57l-.06.18c-.4,1.16-.94,2.74-2.12,3.48A.48.48,0,0,1,176.16,84.6Z"/><path class="cls-5" d="M189.58,88.5a.39.39,0,0,1-.23-.07l-1.61-1c-2.87-1.72-3.39-2-5.86-5.8a.45.45,0,0,1,.75-.48c2.35,3.59,2.72,3.81,5.56,5.52.47.28,1,.6,1.63,1a.44.44,0,0,1,.14.61A.45.45,0,0,1,189.58,88.5Z"/><path class="cls-5" d="M176.65,93.88a.44.44,0,0,1-.33-.15,1.68,1.68,0,0,0-1.95-.53.45.45,0,0,1-.63-.06.46.46,0,0,1,.06-.63,2.5,2.5,0,0,1,3.19.64.44.44,0,0,1,0,.62A.43.43,0,0,1,176.65,93.88Z"/><path class="cls-5" d="M177.39,99.94a.45.45,0,0,1,0-.89c2.05,0,3.42-.52,3.64-.82-.16-.16-1.32-1-8.32-1a.45.45,0,1,1,0-.89c9.23,0,9.23,1.43,9.23,1.91h0a.91.91,0,0,1-.3.65C181,99.51,179.3,99.94,177.39,99.94Z"/><path class="cls-5" d="M190.5,95.52a1.89,1.89,0,0,1-1.26-1.39.44.44,0,1,1,.84-.29c.19.55.45.83.79.84.84,0,2.19-1.34,2.84-2.88.37-.86.41-1.57.12-1.85s-.85-.55-3.28.58a.44.44,0,1,1-.37-.8c2.13-1,3.52-1.14,4.27-.42.59.57.62,1.58.08,2.84-.71,1.69-2.33,3.47-3.69,3.42A1,1,0,0,1,190.5,95.52Z"/><path class="cls-5" d="M171.81,86.86a.45.45,0,0,1-.27-.81c1-.73,3.26-4.66,3.5-5.67a.45.45,0,1,1,.87.21c-.3,1.21-2.67,5.32-3.84,6.18A.43.43,0,0,1,171.81,86.86Z"/><path class="cls-5" d="M168.52,88.36a.41.41,0,0,1-.29-.11.44.44,0,0,1,0-.63,8.55,8.55,0,0,0,1.65-2.71l.19-.43a.45.45,0,0,1,.59-.22.44.44,0,0,1,.23.59l-.19.42a9.57,9.57,0,0,1-1.8,2.94A.46.46,0,0,1,168.52,88.36Z"/><path class="cls-6" d="M172.81,88.22a1.12,1.12,0,0,1,1.1,1.14,1.08,1.08,0,1,1-1.1-1.14Z"/><path class="cls-6" d="M178.61,88.22a1.12,1.12,0,1,1-1.1,1.1,1.1,1.1,0,0,1,1.1-1.1Z"/><path class="cls-5" d="M215.05,94.61c-.19.5-.45,1-.75,1.66-.42.88-.94,2-1.45,3.29-.39,1.06-.74,2-1,2.87-2,5.51-2.66,7.36-7.18,6.16-4-1-12.16-4.2-17.28-9.34a.44.44,0,0,1,0-.63.42.42,0,0,1,.62,0c5,5,13,8.08,16.88,9.11,3.73,1,4.1,0,6.12-5.61.31-.85.65-1.81,1.05-2.87.52-1.36,1-2.47,1.48-3.36,1.05-2.18,1.34-2.91.49-3.7-2.39-2.21-10.58-3.7-17.16-4.89-2-.35-3.8-.69-5.3-1a.44.44,0,0,1-.34-.53.44.44,0,0,1,.52-.34c1.49.32,3.33.65,5.28,1,6.69,1.22,15,2.73,17.6,5.12C215.57,92.44,215.52,93.39,215.05,94.61Z"/><path class="cls-5" d="M78.32,117.38h0a2.16,2.16,0,0,1-1.54-1.56,1.62,1.62,0,0,1,.4-1.21,3.92,3.92,0,0,1,2.69-1.11c1.8-.09,3.44.76,3.57,1.87a1.58,1.58,0,0,1-.38,1.2,3.82,3.82,0,0,1-2.71,1.1A4.69,4.69,0,0,1,78.32,117.38Zm3.28-2.75a4.38,4.38,0,0,0-1.69-.24,3,3,0,0,0-2,.8.65.65,0,0,0-.19.52c0,.3.42.63,1,.84h0a3.92,3.92,0,0,0,1.66.23,2.93,2.93,0,0,0,2.07-.78.68.68,0,0,0,.18-.52C82.51,115.17,82.15,114.84,81.6,114.63Z"/><path class="cls-5" d="M69.54,60.4a.5.5,0,0,1-.21,0,.44.44,0,0,1-.27-.57c2.39-6.82-5.48-10.4-9.26-12.12-1.55-.7-2.07-.94-2.11-1.4-.06-.71-.11-1.25-.15-1.66,0,.07,0,.15,0,.22-.37,1.84-.56,2.62-1.14,2.62s-.68-.56-.75-.81c-.4-1.28-.72-2.26-1-2.93h0c-.09,1.69-.2,3.78-1.4,4.16-2.21.72-6.39,5.47-7.19,9.73a4.68,4.68,0,0,0,1.43,4.82.44.44,0,0,1,.06.63.45.45,0,0,1-.63.06,5.58,5.58,0,0,1-1.74-5.67C46,53,50.22,48,53,47.05c.62-.19.74-2.33.79-3.35.07-1.2.1-1.75.61-1.82h0c.49-.06.72.11,2,4.13.1-.43.21-.95.29-1.34.32-1.6.43-2.2,1-2.17s.69.33.94,3.59a15.21,15.21,0,0,0,1.6.78c3.71,1.69,12.39,5.64,9.73,13.24A.45.45,0,0,1,69.54,60.4Z"/><path class="cls-5" d="M47.24,68.4a1.59,1.59,0,0,1-.49,0c-1.65-.25-3.19-2.87-3.57-4.64-.23-1.1,0-1.91.53-2.28.78-.52,2.07-.11,3.93,1.25a.44.44,0,0,1,.09.62.43.43,0,0,1-.62.1c-2.15-1.57-2.81-1.3-2.92-1.23s-.28.67-.13,1.36c.34,1.63,1.72,3.77,2.83,3.94.14,0,.57.09,1-.68a.45.45,0,0,1,.61-.17.45.45,0,0,1,.17.61A2,2,0,0,1,47.24,68.4Z"/><path class="cls-5" d="M59.91,76.28a9.44,9.44,0,0,1-4.59-.49c-4.24-1.57-7.1-6-8-12.56a.45.45,0,0,1,.38-.5h0a.44.44,0,0,1,.5.38c.89,6.18,3.54,10.39,7.46,11.85a9.49,9.49,0,0,0,9.48-2c3.36-2.94,4.71-7.62,3.6-12.5a.45.45,0,0,1,.34-.54.44.44,0,0,1,.53.34c1.18,5.21-.27,10.21-3.88,13.37A11,11,0,0,1,59.91,76.28Z"/><path class="cls-5" d="M54.78,58.1a.45.45,0,0,1-.41-.17.43.43,0,0,1,.07-.62c.82-.67,1.1-2.09,1.3-3.13l0-.28a.45.45,0,0,1,.53-.35.44.44,0,0,1,.35.52l-.06.28c-.22,1.17-.54,2.78-1.61,3.65A.43.43,0,0,1,54.78,58.1Z"/><path class="cls-5" d="M68.64,60.18a.41.41,0,0,1-.24,0l-1.74-.76c-3.08-1.32-3.63-1.56-6.59-5a.45.45,0,1,1,.67-.59C63.57,57.08,64,57.25,67,58.57c.5.21,1.08.46,1.74.76a.44.44,0,0,1,.23.59A.47.47,0,0,1,68.64,60.18Z"/><path class="cls-5" d="M60.31,65.22A.44.44,0,0,1,60,65.1a1.69,1.69,0,0,0-2-.24.45.45,0,1,1-.62-.64,2.52,2.52,0,0,1,3.24.23.44.44,0,0,1,0,.63A.47.47,0,0,1,60.31,65.22Z"/><path class="cls-5" d="M59.59,72.25h0a3.27,3.27,0,0,1-2.36-.57,2.7,2.7,0,0,1-1.15-1.79h0c-.14-1,.48-2.23,2.62-2.52a.44.44,0,1,1,.12.88c-1.27.17-2,.74-1.86,1.52A1.82,1.82,0,0,0,57.75,71a2.43,2.43,0,0,0,1.73.42.43.43,0,0,1,.5.38A.45.45,0,0,1,59.59,72.25Z"/><path class="cls-5" d="M71.31,65.26a1.9,1.9,0,0,1-1.71-.8.47.47,0,0,1,0-.64.45.45,0,0,1,.63,0c.59.66.94.53,1.06.48.79-.29,1.52-2.09,1.53-3.78,0-.93-.22-1.6-.6-1.74-.2-.08-1-.18-2.79,1.8a.44.44,0,0,1-.63,0,.45.45,0,0,1,0-.63c1.58-1.74,2.82-2.41,3.77-2,.77.29,1.18,1.21,1.17,2.58,0,1.84-.82,4.13-2.1,4.61A1.3,1.3,0,0,1,71.31,65.26Z"/><path class="cls-5" d="M50.76,60.93a.48.48,0,0,1-.38-.13.46.46,0,0,1,0-.64c.88-.85,2.61-5.06,2.72-6.1a.44.44,0,0,1,.49-.4.46.46,0,0,1,.4.49c-.13,1.24-1.94,5.64-3,6.65A.5.5,0,0,1,50.76,60.93Z"/><path class="cls-5" d="M47.73,62.86a.49.49,0,0,1-.31-.07.46.46,0,0,1-.13-.62,8.84,8.84,0,0,0,1.24-2.89l.14-.47a.45.45,0,1,1,.86.25l-.14.47A9.82,9.82,0,0,1,48,62.66.46.46,0,0,1,47.73,62.86Z"/><path class="cls-6" d="M53.79,61.31a1.12,1.12,0,1,1-.94,1.24,1.11,1.11,0,0,1,.94-1.24Z"/><path class="cls-6" d="M62.5,60.14a1.11,1.11,0,0,1,1.24.94,1.14,1.14,0,0,1-.94,1.27,1.11,1.11,0,0,1-1.21-1,1.08,1.08,0,0,1,.91-1.23Z"/><path class="cls-5" d="M70.13,96.76c-.53.07-1.14.1-1.81.13-1,0-2.18.11-3.59.3l-3,.45c-5.82.89-7.78,1.19-8.89-3.36-.27-1.13-2.54-11.23,0-19.71a.44.44,0,0,1,.55-.3.45.45,0,0,1,.3.56c-2.45,8.25-.23,18.14,0,19.24.91,3.76,2,3.59,7.89,2.69l3-.45c1.45-.2,2.68-.26,3.66-.31,2.41-.12,3.19-.21,3.5-1.35.8-3.16-1.82-11.08-3.92-17.44-.63-1.89-1.22-3.68-1.66-5.16a.45.45,0,1,1,.86-.26c.43,1.47,1,3.25,1.65,5.14,2.14,6.47,4.8,14.53,3.93,17.95C72.29,96.17,71.42,96.58,70.13,96.76Z"/><path class="cls-2" d="M109.57,65.81h-23a2.94,2.94,0,0,1-2.93-2.94v-23A2.94,2.94,0,0,1,86.58,37h23a2.94,2.94,0,0,1,2.94,2.94v23A2.94,2.94,0,0,1,109.57,65.81ZM86.58,38a1.93,1.93,0,0,0-1.93,1.94v23a1.93,1.93,0,0,0,1.93,1.94h23a1.94,1.94,0,0,0,1.94-1.94v-23A1.94,1.94,0,0,0,109.57,38Z"/><path class="cls-5" d="M55.46,141.15H36.77a2.48,2.48,0,0,1-2.48-2.48V120a2.49,2.49,0,0,1,2.48-2.49H55.46A2.5,2.5,0,0,1,58,120v18.69A2.49,2.49,0,0,1,55.46,141.15ZM36.77,118.49A1.49,1.49,0,0,0,35.29,120v18.69a1.49,1.49,0,0,0,1.48,1.48H55.46A1.49,1.49,0,0,0,57,138.67V120a1.49,1.49,0,0,0-1.49-1.49Z"/><path class="cls-2" d="M84.63,141.15H65.94a2.48,2.48,0,0,1-2.48-2.48V120a2.49,2.49,0,0,1,2.48-2.49H84.63A2.5,2.5,0,0,1,87.12,120v18.69A2.49,2.49,0,0,1,84.63,141.15ZM65.94,118.49A1.49,1.49,0,0,0,64.46,120v18.69a1.49,1.49,0,0,0,1.48,1.48H84.63a1.49,1.49,0,0,0,1.49-1.48V120a1.49,1.49,0,0,0-1.49-1.49Z"/><path class="cls-5" d="M113.8,141.15H95.11a2.48,2.48,0,0,1-2.48-2.48V120a2.49,2.49,0,0,1,2.48-2.49H113.8a2.49,2.49,0,0,1,2.48,2.49v18.69A2.48,2.48,0,0,1,113.8,141.15ZM95.11,118.49A1.49,1.49,0,0,0,93.63,120v18.69a1.48,1.48,0,0,0,1.48,1.48H113.8a1.48,1.48,0,0,0,1.48-1.48V120a1.49,1.49,0,0,0-1.48-1.49Z"/><path class="cls-5" d="M143,141.15H124.28a2.48,2.48,0,0,1-2.48-2.48V120a2.49,2.49,0,0,1,2.48-2.49H143a2.49,2.49,0,0,1,2.48,2.49v18.69A2.48,2.48,0,0,1,143,141.15Zm-18.69-22.66A1.49,1.49,0,0,0,122.8,120v18.69a1.48,1.48,0,0,0,1.48,1.48H143a1.48,1.48,0,0,0,1.48-1.48V120a1.49,1.49,0,0,0-1.48-1.49Z"/><path class="cls-5" d="M172.14,141.15H153.45a2.48,2.48,0,0,1-2.48-2.48V120a2.49,2.49,0,0,1,2.48-2.49h18.69a2.49,2.49,0,0,1,2.48,2.49v18.69A2.48,2.48,0,0,1,172.14,141.15Zm-18.69-22.66A1.49,1.49,0,0,0,152,120v18.69a1.48,1.48,0,0,0,1.48,1.48h18.69a1.48,1.48,0,0,0,1.48-1.48V120a1.49,1.49,0,0,0-1.48-1.49Z"/><path class="cls-5" d="M201.31,141.15H182.62a2.48,2.48,0,0,1-2.48-2.48V120a2.49,2.49,0,0,1,2.48-2.49h18.69a2.49,2.49,0,0,1,2.48,2.49v18.69A2.48,2.48,0,0,1,201.31,141.15Zm-18.69-22.66a1.49,1.49,0,0,0-1.48,1.49v18.69a1.48,1.48,0,0,0,1.48,1.48h18.69a1.48,1.48,0,0,0,1.48-1.48V120a1.49,1.49,0,0,0-1.48-1.49Z"/><path class="cls-5" d="M48.93,85.23c-12.24,0-14.11-10-14.13-10.16l1-.17c.08.45,2.09,11,16.41,9.11l.13,1A25.85,25.85,0,0,1,48.93,85.23Z"/><path class="cls-5" d="M109.26,68.93h0a8.39,8.39,0,0,1-1.39-.11c-2-.29-3.92-1.21-3.87-2.38,0-.83,1.09-1.35,2.76-1.35a9,9,0,0,1,1.34.11c2,.29,4,1.21,3.9,2.38C112,68.43,110.94,68.93,109.26,68.93Zm-2.5-3c-1.33,0-1.89.37-1.9.52,0,.34,1.08,1.17,3.14,1.49a9.28,9.28,0,0,0,1.26.1h0c1.29,0,1.87-.35,1.88-.53,0-.34-1.09-1.17-3.17-1.49A8.53,8.53,0,0,0,106.76,66Z"/><path class="cls-5" d="M112.24,67.17h-.12a1,1,0,0,1-.73-.41,2.35,2.35,0,0,1-.31-1.83c.2-1.1.88-1.9,1.62-1.9h.13a1.05,1.05,0,0,1,.73.44,2.34,2.34,0,0,1,.27,1.8C113.63,66.39,113,67.17,112.24,67.17Zm.48-3.28c-.24,0-.65.46-.79,1.18a1.6,1.6,0,0,0,.14,1.14.22.22,0,0,0,.13.09l0,.43V66.3c.22,0,.6-.45.74-1.19a1.52,1.52,0,0,0-.12-1.12c-.07-.09-.12-.1-.14-.1Z"/><path class="cls-5" d="M125.41,77.11c-12.24,0-14.11-10.06-14.13-10.17l1-.17c.08.45,2.09,11,16.41,9.11l.13,1A26,26,0,0,1,125.41,77.11Z"/><path class="cls-5" d="M51.93,82.67c-4.85-.86-6.06-4.38-6.11-4.53l1-.31-.48.15.48-.16c0,.13,1.1,3.11,5.33,3.86Z"/><path class="cls-5" d="M111.56,57.83h0a10.1,10.1,0,0,1-.13-1.39c0-2,.52-4.07,1.68-4.22.83-.1,1.52.85,1.81,2.49a9.54,9.54,0,0,1,.12,1.34c0,2-.51,4.1-1.67,4.25C112.53,60.41,111.85,59.49,111.56,57.83Zm2.5-3c-.23-1.31-.68-1.8-.84-1.78-.33.05-1,1.27-.92,3.35a8.28,8.28,0,0,0,.12,1.25h0c.22,1.28.66,1.79.84,1.76s1-1.27.92-3.37A7.75,7.75,0,0,0,114.06,54.86Z"/><path class="cls-5" d="M112.1,60.83h0s0-.1,0-.12a1,1,0,0,1,.28-.79,2.37,2.37,0,0,1,1.75-.62c1.11,0,2,.55,2.14,1.27a.59.59,0,0,1,0,.13,1.07,1.07,0,0,1-.32.79,2.32,2.32,0,0,1-1.72.58C113.11,62.06,112.23,61.55,112.1,60.83Zm3.31-.09c0-.24-.57-.57-1.3-.57a1.56,1.56,0,0,0-1.1.33c-.07.08-.06.12-.06.14l-.42.12.42-.07c0,.21.55.51,1.3.52a1.6,1.6,0,0,0,1.09-.32.21.21,0,0,0,.07-.15Z"/><path class="cls-5" d="M129.35,72.39c-1.42,0-11.71-.41-17.47-11.91l.89-.45c5.88,11.73,16.58,11.35,16.7,11.36l.05,1Z"/><path class="cls-5" d="M99.75,116.52q-7.84,0-16.6-.18l0-1c97.53,2,106.83-14.42,106.91-14.58l.91.42C190.68,101.85,182.87,116.52,99.75,116.52Z"/><path class="cls-5" d="M209.37,117.59a2.08,2.08,0,0,1-1.61-.55c-1.25-1.3.35-4.08,2.39-7.6,1.77-3.07,3.78-6.55,3.09-8.15a1.6,1.6,0,0,0-1.24-.86l.23-1a2.55,2.55,0,0,1,1.92,1.44c.9,2.06-1.15,5.62-3.14,9-1.45,2.52-3.26,5.65-2.53,6.4s5,.11,20.38-8.1l.48.88C216.85,115.78,211.7,117.59,209.37,117.59Z"/><path class="cls-5" d="M225.64,107.18a4.33,4.33,0,0,1-2.32,2.07,1,1,0,0,1-.81-.16c-.93-.66-.47-2.77.46-4.51.88-1.56,1.91-2.54,2.72-2.69a1,1,0,0,1,.79.15c1,.7.44,2.85-.48,4.55C225.88,106.8,225.76,107,225.64,107.18Zm-1.59-2.71c-.11.17-.21.34-.32.53-1,1.82-1,3.19-.71,3.39,0,0,0,0,.14,0a4.64,4.64,0,0,0,2.08-2.23c1-1.84,1-3.23.74-3.42a.19.19,0,0,0-.13,0A3.93,3.93,0,0,0,224.05,104.47Z"/><path class="cls-5" d="M214.83,110.37a1,1,0,0,1-.62-.2c-.9-.63-.29-2.34.63-4.93,1-2.78,2.34-6.59,1.28-8.53a2.59,2.59,0,0,0-1.82-1.25l.22-1A3.6,3.6,0,0,1,217,96.23c1.27,2.33-.11,6.22-1.22,9.35-.51,1.44-1.22,3.42-1,3.78.38.13,2.19-.58,9.84-7l.65.77C218.21,109.07,215.89,110.37,214.83,110.37Z"/><path class="cls-5" d="M50.46,107.53A4.39,4.39,0,0,1,47.73,106a1,1,0,0,1-.11-.81c.32-1.1,2.46-1.37,4.41-1.06,1.76.31,3,1,3.44,1.68a1,1,0,0,1,.11.79c-.33,1.16-2.54,1.36-4.44,1Zm2-2.4q-.3-.07-.6-.12c-2-.33-3.35.12-3.44.44a.25.25,0,0,0,0,.14,4.7,4.7,0,0,0,2.8,1.23c2.06.33,3.38-.12,3.47-.44a.17.17,0,0,0,0-.12A3.93,3.93,0,0,0,52.49,105.13Z"/><path class="cls-5" d="M58.5,105.23a4.31,4.31,0,0,1-2.72-1.5,1,1,0,0,1-.12-.82c.32-1.1,2.46-1.36,4.41-1.06,1.77.31,3,1,3.44,1.68a1,1,0,0,1,.12.8c-.34,1.15-2.54,1.35-4.45,1C58.94,105.33,58.72,105.29,58.5,105.23Zm2-2.4c-.19,0-.39-.09-.6-.12-2-.32-3.34.12-3.44.44a.2.2,0,0,0,0,.14,4.66,4.66,0,0,0,2.79,1.23c2.07.33,3.38-.12,3.47-.44a.14.14,0,0,0,0-.11A4,4,0,0,0,60.53,102.83Z"/><path class="cls-5" d="M48.13,106c-14.09-3.71-15.8-5.49-15.61-6.75C33,96.33,48.58,96.7,55.28,97l0,1c-11.58-.51-21.54.12-21.73,1.4,0,.16.18,1.75,14.88,5.62Z"/><path class="cls-5" d="M142.34,100.64a4.33,4.33,0,0,1-2.75-1.46,1,1,0,0,1-.13-.81c.3-1.11,2.43-1.41,4.39-1.14,1.77.27,3,.89,3.47,1.61a1,1,0,0,1,.13.79c-.32,1.16-2.51,1.4-4.43,1.13C142.78,100.73,142.56,100.68,142.34,100.64Zm2-2.44c-.19,0-.39-.08-.6-.12-2.05-.28-3.34.2-3.43.52a.19.19,0,0,0,0,.13,4.65,4.65,0,0,0,2.82,1.18c2.07.28,3.37-.19,3.46-.51,0,0,0-.09,0-.12A4,4,0,0,0,144.32,98.2Z"/><path class="cls-5" d="M140.06,99c-18-3.67-17.78-5.41-17.7-6.25.24-2.52,12-2.89,17.06-2.93v1c-8.47.07-16,1-16.07,2,0,.18.31,1.79,16.9,5.18Z"/><path class="cls-5" d="M133.86,100.76c-1.91.27-4.11,0-4.42-1.13a1,1,0,0,1,.13-.79c.42-.72,1.7-1.34,3.47-1.61,2-.27,4.09,0,4.39,1.14a1,1,0,0,1-.13.81,4.36,4.36,0,0,1-2.76,1.46C134.33,100.68,134.1,100.73,133.86,100.76Zm-3.55-1.48s-.05.09,0,.12c.09.32,1.39.79,3.47.51a4.61,4.61,0,0,0,2.81-1.18c.06-.08,0-.12,0-.13-.09-.32-1.38-.8-3.43-.52l-.6.12A3.89,3.89,0,0,0,130.31,99.28Z"/><path class="cls-5" d="M136.83,99l-.2-1c16.58-3.39,17.07-5,17.07-5.19-.18-1-7.48-1.87-15.61-1.92v-1c4.91,0,16.36.37,16.6,2.82C154.77,93.58,154.94,95.31,136.83,99Z"/><path class="cls-5" d="M56.29,103.61C43,97.49,41.51,95.53,41.93,94.32c.9-2.64,15.86.53,22.26,2l-.23,1c-11-2.55-20.61-3.77-21.09-2.67,0,.16.07,1.74,13.83,8.06Z"/><path class="cls-5" d="M164.38,103c-.21-2-1.14-12,1.68-13.53.79-.42,1.73-.18,2.79.71l-.65.77c-.71-.61-1.28-.81-1.67-.6-1.72.92-1.62,8.18-1.15,12.54Z"/><path class="cls-2" d="M94.82,54a.6.6,0,0,1-.19.44.63.63,0,0,1-.44.17.52.52,0,0,1-.3-.08l-4.42-2.65a.63.63,0,0,1-.33-.55.65.65,0,0,1,.33-.54l4.42-2.67a.8.8,0,0,1,.31-.07.63.63,0,0,1,.44.16.54.54,0,0,1,.18.42.59.59,0,0,1-.3.54L90.9,51.32l3.62,2.16A.61.61,0,0,1,94.82,54Z"/><path class="cls-2" d="M99.59,46.24a.6.6,0,0,1,.94.5.75.75,0,0,1,0,.26l-3.61,9a.56.56,0,0,1-.23.27.67.67,0,0,1-.34.09.63.63,0,0,1-.43-.17.58.58,0,0,1-.18-.43.65.65,0,0,1,.06-.26l3.61-9A.58.58,0,0,1,99.59,46.24Z"/><path class="cls-2" d="M107,51.34a.64.64,0,0,1-.32.55l-4.43,2.65a.52.52,0,0,1-.3.08.59.59,0,0,1-.43-.17.57.57,0,0,1-.2-.44.61.61,0,0,1,.3-.53l3.62-2.16-3.62-2.14a.59.59,0,0,1-.3-.54.54.54,0,0,1,.18-.42.63.63,0,0,1,.44-.16.76.76,0,0,1,.31.07l4.43,2.67A.66.66,0,0,1,107,51.34Z"/><path class="cls-2" d="M72.07,132.75a.55.55,0,0,1-.2.43.61.61,0,0,1-.43.18.53.53,0,0,1-.3-.09l-4.43-2.65a.63.63,0,0,1-.32-.55.66.66,0,0,1,.32-.54l4.43-2.66a.79.79,0,0,1,.31-.08.64.64,0,0,1,.44.17.51.51,0,0,1,.18.41.59.59,0,0,1-.3.54l-3.62,2.15,3.62,2.16A.6.6,0,0,1,72.07,132.75Z"/><path class="cls-2" d="M76.84,125a.67.67,0,0,1,.34-.1.62.62,0,0,1,.6.6.86.86,0,0,1,0,.27l-3.61,9a.56.56,0,0,1-.23.27.69.69,0,0,1-.34.09.57.57,0,0,1-.43-.17.58.58,0,0,1-.18-.43.69.69,0,0,1,.06-.26l3.61-9A.58.58,0,0,1,76.84,125Z"/><path class="cls-2" d="M84.26,130.07a.62.62,0,0,1-.33.55l-4.42,2.65a.53.53,0,0,1-.3.09.64.64,0,0,1-.44-.18.57.57,0,0,1-.19-.43.6.6,0,0,1,.3-.53l3.61-2.16-3.61-2.15a.59.59,0,0,1-.3-.54.51.51,0,0,1,.18-.41.63.63,0,0,1,.43-.17.83.83,0,0,1,.32.08l4.42,2.66A.65.65,0,0,1,84.26,130.07Z"/><path class="cls-2" d="M35.43,63.38a.57.57,0,0,1,.32.36.63.63,0,0,1,0,.47.5.5,0,0,1-.2.23l-4.28,2.89a.62.62,0,0,1-1-.47l-.54-5.14a.94.94,0,0,1,.07-.31.61.61,0,0,1,.33-.32.54.54,0,0,1,.45,0,.58.58,0,0,1,.36.5l.42,4.18,3.48-2.35A.61.61,0,0,1,35.43,63.38Z"/><path class="cls-2" d="M30.41,55.76a.7.7,0,0,1,.06-.35.58.58,0,0,1,.34-.31.61.61,0,0,1,.46,0,.82.82,0,0,1,.22.16l6.65,7.1a.47.47,0,0,1,.14.32.61.61,0,0,1-.06.35.58.58,0,0,1-.34.31.57.57,0,0,1-.46,0,.78.78,0,0,1-.21-.17l-6.65-7.1A.56.56,0,0,1,30.41,55.76Z"/><path class="cls-2" d="M38.18,51.2a.63.63,0,0,1,.36.53l.52,5.14a.46.46,0,0,1-.05.3.63.63,0,0,1-.34.32.58.58,0,0,1-.48,0,.61.61,0,0,1-.35-.5l-.42-4.18-3.48,2.36a.6.6,0,0,1-.62,0,.5.5,0,0,1-.29-.34.61.61,0,0,1,0-.46.76.76,0,0,1,.2-.25l4.29-2.88A.69.69,0,0,1,38.18,51.2Z"/></g></g></svg>