<?xml version="1.0" encoding="utf-8"?>
<!-- Generator: Adobe Illustrator 24.0.1, SVG Export Plug-In . SVG Version: 6.00 Build 0)  -->
<svg version="1.1" id="Layer_1" xmlns="http://www.w3.org/2000/svg" xmlns:xlink="http://www.w3.org/1999/xlink" x="0px" y="0px"
	 viewBox="0 0 680 205" style="enable-background:new 0 0 680 205;" xml:space="preserve">
<style type="text/css">
	.st0{fill:#4285F4;}
	.st1{fill:#EA4335;}
	.st2{fill:#FBBC05;}
	.st3{fill:#34A853;}
</style>
<path class="st0" d="M76,73.6V95h46.3c-1.4,12-5,20.8-10.6,27c-6.8,7.5-17.4,15.7-35.8,15.7c-28.6,0-50.8-25.5-50.8-56.9
	S47.4,23.9,76,23.9c15.3,0,26.6,6.7,34.9,15.3l13.6-15.1C113,11.8,97.6,2.5,76,2.5C36.9,2.5,4.1,37.6,4.1,80.7s32.8,78.4,71.9,78.4
	c21.1,0,37.1-7.7,49.5-21.9c12.7-14.2,16.7-34,16.7-50.1c0-5-0.3-9.5-1-13.4L76,73.6L76,73.6z"/>
<path class="st1" d="M200.3,56.2c-25.3,0-45.9,21.2-45.9,50.6c0,29.1,20.6,50.6,45.9,50.6s45.9-21.4,45.9-50.6
	C246.2,77.5,225.5,56.2,200.3,56.2z M200.3,137.4c-13.9,0-25.9-12.6-25.9-30.6c0-18.1,12-30.6,25.9-30.6s25.9,12.5,25.9,30.6
	C226,124.8,214.1,137.4,200.3,137.4z"/>
<path class="st0" d="M425.5,67.6h-0.8c-4.5-5.9-13.1-11.3-24.1-11.3c-22.9,0-42.8,22-42.8,50.6c0,28.4,19.9,50.6,42.8,50.6
	c10.9,0,19.7-5.4,24.1-11.5h0.8v7.1c0,19.3-9.4,29.7-24.4,29.7c-12.4,0-19.9-9.8-23-18l-17.5,8c5,13.4,18.4,29.9,40.5,29.9
	c23.5,0,43.5-15.3,43.5-52.6v-91h-19V67.6z M402.4,137.4c-13.9,0-24.4-13-24.4-30.6c0-17.9,10.6-30.6,24.4-30.6
	c13.8,0,24.4,13,24.4,30.8S416.1,137.4,402.4,137.4z"/>
<path class="st2" d="M302.7,56.2c-25.3,0-45.9,21.2-45.9,50.6c0,29.1,20.6,50.6,45.9,50.6c25.3,0,45.9-21.4,45.9-50.6
	C348.7,77.5,327.9,56.2,302.7,56.2z M302.7,137.4c-13.9,0-25.9-12.6-25.9-30.6c0-18.1,12-30.6,25.9-30.6s25.9,12.5,25.9,30.6
	C328.6,124.8,316.6,137.4,302.7,137.4z"/>
<path class="st3" d="M460.4,4.5h19.8v152.9h-19.8V4.5z"/>
<path class="st1" d="M541.2,137.4c-10.3,0-17.5-5.1-22.3-15.3l61.3-27.9l-2.1-5.8c-3.7-11.3-15.4-32.2-39.1-32.2
	c-23.5,0-43.2,20.5-43.2,50.6c0,28.4,19.4,50.6,45.4,50.6c21,0,33.1-14.2,38.1-22.4l-15.6-11.5C558.5,131.9,551.5,137.4,541.2,137.4
	L541.2,137.4z M539.7,75.3c8.1,0,15.1,4.6,17.4,11.2l-41.4,18.9C515.7,84,529.3,75.3,539.7,75.3z"/>
</svg>
