<?xml version="1.0" encoding="utf-8"?>
<!-- Generator: Adobe Illustrator 24.0.1, SVG Export Plug-In . SVG Version: 6.00 Build 0)  -->
<svg version="1.1" id="Layer_1" xmlns="http://www.w3.org/2000/svg" xmlns:xlink="http://www.w3.org/1999/xlink" x="0px" y="0px"
	 viewBox="0 0 680 205" style="enable-background:new 0 0 680 205;" xml:space="preserve">
<style type="text/css">
	.st0{fill:#F25022;}
	.st1{fill:#80BA01;}
	.st2{fill:#777777;}
	.st3{fill:#02A4EF;}
	.st4{fill:#FFB902;}
</style>
<title>Microsoft 2</title>
<path class="st0" d="M9.2,31.9h67.2v67.2H9.2V31.9z"/>
<path class="st1" d="M83.3,31.9h67.2v67.2H83.3V31.9L83.3,31.9z"/>
<path class="st2" d="M615.1,57.5c6.2-4.1,14.1-4.4,21.2-2.5c0.1,4.1,0,8.3,0,12.4c-3.3-1.5-7.2-2.4-10.7-0.9c-2.8,1.1-4.4,4-4.8,6.8
	c-0.5,3.6-0.2,7.2-0.3,10.9h21.3c0.1-4.6-0.1-9.2,0.1-13.8c4.8-1.4,9.6-2.9,14.4-4.3c0,6-0.1,12.2,0.1,18.2c4.7-0.1,9.6,0,14.4,0
	v11.7c-4.8-0.2-9.7-0.1-14.4-0.1v20.3c0.1,3.8-0.2,7.5,0.3,11.3c0.3,2.2,1,4.7,3.1,5.8c3.4,2,7.8,1.1,11-1v11.9
	c-4.2,1.7-8.8,2.4-13.3,2.1c-4.2-0.3-8.7-1.9-11.5-5.3c-3.2-3.8-4.1-9-4.1-13.9V95.9h-21.2v49h-14.5v-49c-3.4-0.1-6.7,0-10.1-0.1
	V84.1c3.4-0.1,6.7,0,10.1,0c0.3-5.2-0.5-10.4,1-15.5C608.2,64,611,60.1,615.1,57.5L615.1,57.5z"/>
<path class="st2" d="M304,58.4c3-0.5,6,0.6,8,2.8c2.3,2.7,2.7,6.5,1,9.5c-2.1,3.3-5.9,4.9-9.7,4.1c-3.9-0.7-6.7-4.1-6.7-8.1
	C296.6,62.4,299.8,58.9,304,58.4L304,58.4z"/>
<path class="st2" d="M192.6,60.1h21.1c6.6,16.7,13.2,33.4,19.8,50.1c1.7,4.1,3.3,8.4,5,12.6C247,101.9,255.7,81,264,60.2
	c6.8-0.1,13.5,0,20.3,0v84.7c-4.9,0-9.7,0.1-14.7,0c0.1-20.9,0-41.6,0-62.5c0-0.9,0-1.9-0.1-2.8c-0.3,0.4-0.5,0.9-0.8,1.4
	c-8.4,21.3-17,42.6-25.3,64c-3.4,0.1-7,0-10.4,0.1c-8.6-21.3-17.2-42.7-25.9-64.1c-0.3-0.4-0.4-0.9-0.8-1.3
	c-0.2,9.1,0,18.3-0.1,27.4v37.9h-13.8V60.1L192.6,60.1z"/>
<path class="st2" d="M344,84c7.1-2,14.5-2,21.6,0.1c1.5,0.4,2.8,0.9,4.1,1.7c-0.1,4.7,0,9.2,0,13.9c-4.7-3.6-10.6-5.9-16.6-5.1
	c-4.8,0.4-9.1,2.8-12.1,6.7c-3.6,4.7-4.5,11-3.9,16.8c0.4,4.6,2.3,9.1,5.9,12.1c3.7,3.3,8.8,4.4,13.6,4.1c4.7-0.6,9.3-2.5,13.1-5.3
	v13.2c-5.9,3.5-13,4.5-19.8,4.1c-7.1-0.3-13.8-3.1-19-7.8c-5.4-5.4-8.5-12.7-8.8-20.3c-0.3-7.8,1.2-16,5.8-22.5
	C331.7,89.9,337.4,85.9,344,84L344,84z"/>
<path class="st2" d="M502.6,83.1c6.8-1.1,13.7-0.3,20.1,2.1v13.4c-4.5-3.1-9.8-4.7-15.3-4.5c-2.8,0.1-5.7,1.3-6.9,3.8
	c-0.9,2.6-0.3,5.9,2.1,7.4c4.1,2.8,9.1,4,13.3,6.4c3.4,1.9,6.6,4.4,8.4,7.9c3.2,6.6,1.8,15.5-3.8,20.4c-5.3,5-13.1,6.4-20.3,6.1
	c-5.1-0.3-10.1-1.4-14.7-3.4v-14.1c3.9,2.8,8.4,4.8,13.2,5.7c3.4,0.5,6.9,0.6,10-0.9c3.1-1.6,3.5-5.7,1.7-8.3
	c-1.6-2-4.1-3.1-6.4-4.1c-4.3-1.9-8.8-3.5-12.5-6.4c-2.7-2.1-4.6-5-5.4-8.3c-1.1-4.8-0.8-10.3,2-14.5
	C491.3,87.1,496.9,84.1,502.6,83.1L502.6,83.1z"/>
<path class="st2" d="M402.2,85.1c4.1-2.3,9.1-2.8,13.5-1.1v14.6c-2.9-1.8-6.4-2.7-9.8-2.3c-4.1,0.4-7.4,3.6-9.1,7.2
	c-1.8,3.9-2.2,8.2-2.1,12.4v29h-14.3V84.1c4.7-0.1,9.6,0,14.3,0v10.4C396.2,90.8,398.5,87.2,402.2,85.1L402.2,85.1z"/>
<path class="st2" d="M297.9,84.1c4.8,0,9.7-0.1,14.5,0c-0.1,20.3,0,40.4,0,60.7h-14.5V84.1L297.9,84.1z"/>
<path class="st2" d="M475.9,98.3c-2.6-5.7-7.1-10.2-12.7-12.8c-6.5-2.9-13.8-3.4-20.8-2.5l0,0c-7.3,0.9-14.5,4.4-19.1,10.2
	c-4.2,5.2-6.3,11.9-6.7,18.5c-0.6,7.8,0.7,16.1,5.3,22.7c4.1,5.6,10,9.5,16.8,11c5.6,1.2,11.4,1.2,17,0c6.6-1.3,12.5-5,16.6-10.3
	c4-5,5.9-11.4,6.4-17.7C479.2,111,478.6,104.2,475.9,98.3z M461.8,126.2c-1.4,3.2-4,5.7-7.2,7c-3.8,1.4-7.9,1.6-11.8,0.5
	c-4-1.1-7.2-3.8-9.1-7.5c-2.3-4.7-2.7-10.1-2.2-15.2c0.4-4.7,2.1-9.5,5.6-12.7c2.7-2.3,6-3.6,9.6-3.8l0,0c4.4-0.3,9.1,0.9,12.2,4.1
	c3.4,3.3,4.7,8.1,5,12.7C464.2,116.3,463.9,121.6,461.8,126.2z"/>
<path class="st2" d="M592.2,100.1C590,94,585.5,89,579.7,85.9c-6.6-3.4-14.3-3.8-21.6-2.9l0,0c-5.9,0.7-11.5,3-16,6.9
	c-5.4,4.7-8.7,11.6-9.6,18.7c-0.9,7.1-0.6,14.5,2.2,21.1c2.8,6.6,8.1,11.6,14.7,14.3c6.5,2.6,13.6,2.8,20.4,1.7
	c7.1-1.1,13.5-4.8,17.8-10.4c4.6-5.9,6.6-13.4,6.6-20.7C594.6,109.7,593.9,104.7,592.2,100.1z M579.1,120.6
	c-0.4,3.3-1.7,6.3-3.7,8.9c-2.2,2.5-5.2,4.1-8.5,4.6c-3.5,0.6-7.1,0.2-10.3-1.1c-3.5-1.6-6.2-4.5-7.7-8c-1.6-4.2-2.2-8.7-1.7-13.2
	c0.3-4.3,1.6-8.7,4.4-12.1c2.7-3.1,6.6-4.9,10.6-5.1l0,0c4.1-0.3,8.5,0.7,11.6,3.4c2.9,2.4,4.5,6,5.3,9.7
	C579.8,112,579.9,116.3,579.1,120.6z"/>
<path class="st3" d="M9.2,105.9h67.2v67.2H9.2V105.9z"/>
<path class="st4" d="M83.3,105.9h67.2v67.2H83.3V105.9L83.3,105.9z"/>
</svg>
