<?xml version="1.0" encoding="utf-8"?>
<!-- Generator: Adobe Illustrator 24.0.1, SVG Export Plug-In . SVG Version: 6.00 Build 0)  -->
<svg version="1.1" id="Layer_1" xmlns="http://www.w3.org/2000/svg" xmlns:xlink="http://www.w3.org/1999/xlink" x="0px" y="0px"
	 viewBox="0 0 680 205.3" style="enable-background:new 0 0 680 205.3;" xml:space="preserve">
<style type="text/css">
	.st0{fill:#17BAED;}
	.st1{fill:#223368;}
</style>
<title>Paytm</title>
<g id="Layer_2_1_">
	<g id="Layer_1-2">
		<path class="st0" d="M655.3,62.2c-6.1-17.2-22.4-28.9-40.7-28.9h-0.4c-11.8,0-23.1,4.7-31.2,13.2c-8.1-8.5-19.3-13.2-31-13.2h-0.4
			c-10.4,0-20.3,3.7-28.1,10.4v-3.3c-0.3-3.3-3-5.8-6.3-6h-28.9c-3.5,0-6.3,2.9-6.3,6.3l0,0v156.7c0,3.5,2.8,6.3,6.3,6.5l0,0h28.9
			c3.2,0,5.8-2.4,6.3-5.6V86c0-0.4,0-0.8,0-1.1c0.4-5.3,4.7-9.4,9.9-9.6h5.3c2.3,0.1,4.3,1,6.1,2.4c2.5,2,3.9,5.2,3.9,8.5l0.1,112
			c0,3.5,2.8,6.5,6.3,6.5h28.9c3.4,0,6.2-2.7,6.3-6.1V85.9c-0.1-3.5,1.6-7,4.7-9c1.6-1,3.4-1.6,5.3-1.8h5.3c5.7,0.4,10,5.1,9.9,10.8
			l0.1,111.8c0,3.5,2.9,6.3,6.3,6.5H651c3.5,0,6.3-2.9,6.3-6.5l0,0V77.4C657.4,69.3,656.5,65.7,655.3,62.2"/>
		<path class="st0" d="M459.9,34.9h-16.5V8.1c0-3.2-2.7-5.8-5.8-5.8l0,0c-0.4,0-0.8,0-1.1,0.1c-18.2,5.1-14.7,30.4-48,32.6h-3.3
			c-0.5,0-0.9,0.1-1.4,0.1l0,0c-2.9,0.6-4.9,3.2-4.9,6.2v28.9c0,3.5,2.9,6.3,6.5,6.3h17.5V199c0,3.5,2.8,6.3,6.3,6.3h28.5
			c3.4,0,6.3-2.8,6.3-6.3l0,0V76.5H460c3.5,0,6.3-2.8,6.3-6.3V41.3C466.4,37.7,463.4,34.9,459.9,34.9"/>
		<path class="st1" d="M356.2,34.9h-28.9c-3.5,0-6.3,2.9-6.3,6.3v59.7c0,3.7-3,6.7-6.7,6.6h-12c-3.7,0-6.7-3-6.7-6.7l0,0l-0.1-59.5
			c0-3.5-2.9-6.3-6.3-6.3h-29.1c-3.5,0-6.3,2.9-6.3,6.3v65.5c0,24.8,17.6,42.4,42.6,42.4c0,0,18.6,0,19.3,0.1c3.7,0.4,6.3,3.7,6,7.3
			c-0.4,3.2-2.8,5.6-5.8,6l-0.5,0.1l-42.2,0.1c-3.5,0-6.3,2.9-6.3,6.3l0,0v28.9c0,3.5,2.8,6.3,6.3,6.3l0,0h47.2
			c24.8,0,42.6-17.7,42.6-42.6V41.3C362.5,37.7,359.6,34.9,356.2,34.9"/>
		<path class="st1" d="M79.4,34.9H16.2c-3.4,0-6.2,2.8-6.2,6.2v28.2v0.1c0,0,0,0.3,0,0.4v127.9c-0.1,3.4,2.5,6.2,5.8,6.5h29.4
			c3.5,0,6.3-2.9,6.3-6.3l0,0l0.1-43.8h27.6c23.1,0,39.1-16.1,39.1-39.1V74.2C118.6,51,102.5,34.9,79.4,34.9 M76.8,87.8v17.9
			c0,3.7-3,6.7-6.7,6.7l0,0H51.8V76.7H70c3.7,0,6.7,3,6.7,6.7l0,0C76.8,83.5,76.8,87.8,76.8,87.8z"/>
		<path class="st1" d="M192,35.1h-40c-3.4-0.1-6.2,2.5-6.3,6v11.3c0,0.1,0,0.1,0,0.3c0,0.1,0,0.1,0,0.3v15.3
			c0.1,3.5,3.2,6.5,6.7,6.3c0,0,0,0,0.1,0h38.1c3.2,0.4,5.6,3,5.7,6.2v3.7c-0.3,3-2.5,5.6-5.6,6h-18.9c-25.1,0-42.9,16.7-42.9,40.2
			v33.4c0,23.3,15.3,39.9,40.3,39.9h52.3c9.4,0,17-7.1,17-15.8V78.4C238.2,51.8,224.6,35.1,192,35.1 M196.4,155.5v4.6
			c0,0.4,0,0.8-0.1,1s-0.1,0.6-0.3,0.9c-1,2.7-3.5,4.4-6.5,4.3h-12c-3.5,0.1-6.7-2.7-6.8-6.2V160v-5.4c0,0,0-0.1,0-0.3v-19
			c0.1-3.5,3.2-6.5,6.7-6.3l0,0h12c3.5-0.1,6.7,2.7,6.8,6.2v0.1L196.4,155.5z"/>
	</g>
</g>
</svg>
